<?xml version="1.0" encoding="utf-8"?>
<!-- Generator: Adobe Illustrator 16.0.0, SVG Export Plug-In . SVG Version: 6.00 Build 0)  -->
<!DOCTYPE svg PUBLIC "-//W3C//DTD SVG 1.1//EN" "http://www.w3.org/Graphics/SVG/1.1/DTD/svg11.dtd">
<svg version="1.1" id="Capa_1" xmlns="http://www.w3.org/2000/svg" xmlns:xlink="http://www.w3.org/1999/xlink" x="0px" y="0px"
	 width="996px" height="691px" viewBox="0 0 996 691" enable-background="new 0 0 996 691" xml:space="preserve">
<path fill="#D75A4A" d="M495.927,139.941c27.889-66.101,91.6-112.288,165.702-112.288c99.821,0,171.713,85.394,180.752,187.164
	c0,0,4.878,25.263-5.86,70.745c-14.621,61.941-48.991,116.973-95.33,158.972L495.927,663.36l-241.131-218.84
	c-46.339-41.985-80.709-97.03-95.331-158.972c-10.738-45.481-5.86-70.745-5.86-70.745c9.039-101.771,80.93-187.164,180.752-187.164
	C408.474,27.64,468.038,73.84,495.927,139.941z"/>
<line fill="none" stroke="#000000" stroke-width="40" stroke-miterlimit="10" x1="89.989" y1="117.365" x2="836.01" y2="531.821"/>
</svg>
