<?xml version="1.0" encoding="utf-8"?>
<!-- Generator: Adobe Illustrator 16.0.0, SVG Export Plug-In . SVG Version: 6.00 Build 0)  -->
<!DOCTYPE svg PUBLIC "-//W3C//DTD SVG 1.1//EN" "http://www.w3.org/Graphics/SVG/1.1/DTD/svg11.dtd">
<svg version="1.1" id="Capa_1" xmlns="http://www.w3.org/2000/svg" xmlns:xlink="http://www.w3.org/1999/xlink" x="0px" y="0px"
	 width="996px" height="691px" viewBox="0 0 996 691" enable-background="new 0 0 996 691" xml:space="preserve">
<g>
	<g>
		<g>
			<path fill="#556080" d="M1125.666,560.078h133.261c11.902,0,22.909,3.913,31.904,10.448
				c-23.327-28.548-58.792-46.792-98.534-46.792s-75.208,18.244-98.534,46.792C1102.758,563.991,1113.764,560.078,1125.666,560.078z
				"/>
			<path fill="#556080" d="M1313.303,611.795c0.043,0.933,0.14,1.854,0.14,2.799c0,29.983-24.532,54.516-54.516,54.516h-133.261
				c-29.983,0-54.516-24.532-54.516-54.516c0-0.945,0.098-1.866,0.14-2.799c-3.986,12.339-6.196,25.478-6.196,39.143
				c0,70.252,56.95,127.203,127.203,127.203c70.252,0,127.203-56.951,127.203-127.203
				C1319.5,637.272,1317.289,624.134,1313.303,611.795z"/>
		</g>
		<path fill="#F29C1F" d="M1162.004,632.766c-0.908,0-1.835-0.206-2.701-0.637l-48.459-24.229c-2.992-1.496-4.203-5.137-2.707-8.129
			s5.13-4.198,8.129-2.708l48.458,24.229c2.992,1.496,4.204,5.137,2.708,8.129C1166.365,631.542,1164.228,632.766,1162.004,632.766z
			"/>
		<path fill="#F29C1F" d="M1222.589,632.766c-2.223,0-4.361-1.224-5.427-3.35c-1.496-2.993-0.285-6.633,2.707-8.129l48.459-24.229
			c3.004-1.49,6.633-0.285,8.129,2.708c1.496,2.992,0.284,6.632-2.708,8.129l-48.458,24.229
			C1224.425,632.56,1223.498,632.766,1222.589,632.766z"/>
	</g>
</g>
<path fill="#FCCC66" d="M480.854,42.163c166.399,0,301.292,134.892,301.292,301.287c0,166.396-134.893,301.287-301.292,301.287
	c-166.396,0-301.288-134.891-301.288-301.287C179.567,177.055,314.458,42.163,480.854,42.163z"/>
<g>
	<path fill="#D89D7C" d="M360.74,379.931c-31.358-0.283-40.184-33.428-39.828-44.754c0.016-0.548-0.729-0.682-0.928-0.166
		c-5.254,13.738-26.66,76.266,9.009,100.488"/>
	<path fill="#D89D7C" d="M602.475,374.37c31.357-0.286,40.184-33.432,39.826-44.758c-0.016-0.547,0.73-0.682,0.93-0.166
		c5.254,13.738,26.66,76.266-9.008,100.488"/>
	<path fill="#E9BB8B" d="M551.226,548.981H416.298c-52.384,0-95.243-42.861-95.243-95.244l0,0c0-52.383,42.859-95.243,95.243-95.243
		h134.927c52.382,0,95.243,42.86,95.243,95.243l0,0C646.469,506.12,603.607,548.981,551.226,548.981z"/>
	<path fill="#CB8252" d="M455.983,437.864c-4.382,0-7.938-3.557-7.938-7.938v-23.812h-23.81c-4.381,0-7.937-3.556-7.937-7.937
		s3.556-7.936,7.937-7.936h31.749c4.381,0,7.937,3.555,7.937,7.936v31.748C463.92,434.308,460.364,437.864,455.983,437.864z"/>
	<path fill="#CB8252" d="M511.541,437.864c-4.381,0-7.937-3.557-7.937-7.938v-31.748c0-4.381,3.556-7.936,7.937-7.936h31.748
		c4.381,0,7.937,3.555,7.937,7.936s-3.556,7.937-7.937,7.937h-23.811v23.812C519.479,434.308,515.922,437.864,511.541,437.864z"/>
	<path fill="#6D2C00" d="M570.631,182.748c-13.334-10.858-30.176-18.913-51.162-22.675c0,0-25.205-35.701-38.834-46.415
		c-18.787-14.763-44.232-19.335-66.003-9.477c-33.677,15.254-30.089,47.954-30.089,47.954s49.114-32.247,71.432,7.938
		c0,0-29.104,3.968-59.098,22.675c-31.398,19.581-44.082,59.376-44.082,96.377v103.18h0.777
		c16.771-14.793,38.724-23.812,62.718-23.812h134.927c23.993,0,45.946,9.019,62.718,23.812h0.777v-103.18
		C614.721,242.124,599.332,206.107,570.631,182.748z"/>
	<path fill="#FFFFFF" d="M479.793,358.494h-63.495v-49.581c0-12.072,9.787-21.85,21.85-21.85h19.795
		c12.072,0,21.85,9.787,21.85,21.85V358.494z"/>
	<circle fill="#2C2F38" cx="448.045" cy="326.748" r="15.874"/>
	<path fill="#FFFFFF" d="M543.289,358.494h-63.496v-49.581c0-12.072,9.785-21.85,21.851-21.85h19.794
		c12.073,0,21.852,9.787,21.852,21.85V358.494z"/>
	<circle fill="#2C2F38" cx="511.541" cy="326.748" r="15.874"/>
	<path fill="#D89D7C" d="M479.793,297.735c-47.716,0-103.179-20.803-103.179-47.621c0-4.381,3.556-7.937,7.937-7.937
		s7.937,3.556,7.937,7.937c0,11.945,42.288,31.747,87.306,31.747c53.012,0,95.244-22.802,95.244-31.747
		c0-4.381,3.555-7.937,7.936-7.937c4.383,0,7.938,3.556,7.938,7.937C590.91,278.742,524.025,297.735,479.793,297.735z"/>
	<path fill="#CB8252" d="M416.298,477.548h134.927c37.54,0,72.249-20.85,90.337-53.692c-1.951-5.858-4.453-11.46-7.451-16.763
		c-1.541,0.777-2.891,1.945-3.676,3.628c-14.326,30.952-45.422,50.954-79.21,50.954H416.298c-33.795,0-64.892-20.002-79.21-50.954
		c-0.777-1.683-2.135-2.851-3.674-3.628c-3.001,5.303-5.501,10.904-7.453,16.763C344.048,456.698,378.748,477.548,416.298,477.548z"
		/>
</g>
<g>
	<path fill="#FFFEFF" d="M1137.78,337.686c0,7.137-5.785,12.925-12.924,12.925h-81.562c-7.137,0-12.924-5.787-12.924-12.925V186.901
		c0-7.137,5.785-12.925,12.924-12.925h81.564c7.137,0,12.926,5.785,12.926,12.925v150.785H1137.78z"/>
	<polygon fill="#486380" points="1128.233,317.194 1128.233,317.194 1042.304,317.194 1042.304,317.194 1042.304,197.848 
		1042.304,197.848 1128.233,197.848 1128.233,197.848 	"/>
	<path fill="#34495E" d="M1092.429,333.903c0,5.271-4.275,9.547-9.547,9.547l0,0c-5.273,0-9.549-4.275-9.549-9.547l0,0
		c0-5.273,4.275-9.549,9.549-9.549l0,0C1088.153,324.354,1092.429,328.629,1092.429,333.903L1092.429,333.903z"/>
	<path fill="#34495E" d="M1106.751,189.842c0,1.786-1.447,3.232-3.232,3.232h-36.5c-1.785,0-3.232-1.446-3.232-3.232v-0.699
		c0-1.785,1.447-3.231,3.232-3.231h36.502c1.787,0,3.232,1.446,3.232,3.231L1106.751,189.842L1106.751,189.842z"/>
	<polygon fill="#49708B" points="1042.38,317.194 1128.31,317.194 1128.31,197.848 1128.216,197.848 1042.38,317.393 	"/>
</g>
<path fill="#C13B00" d="M558.158,261.139H409.367c-33.478,0-60.869-13.152-60.869-29.22l0,0c0-16.07,27.391-29.219,60.869-29.219
	h148.792c33.477,0,60.867,13.149,60.867,29.219l0,0C619.025,247.987,591.635,261.139,558.158,261.139z"/>
<path fill="#C13B00" d="M627.947,227.329l-47.787,20.245c-10.751,4.555-22.851,0.49-26.883-9.031l0,0
	c-4.037-9.523,1.461-21.042,12.213-25.597l47.787-20.246c10.752-4.555,22.85-0.49,26.883,9.033l0,0
	C644.195,211.254,638.699,222.774,627.947,227.329z"/>
<path fill="#C13B00" d="M645.686,264.185l-59.562-10.032c-13.401-2.257-22.962-12.448-21.244-22.645l0,0
	c1.716-10.199,14.086-16.698,27.49-14.44l59.562,10.03c13.4,2.257,22.961,12.448,21.244,22.647l0,0
	C671.457,259.941,659.088,266.441,645.686,264.185z"/>
</svg>
